<svg width="256px" height="256px" viewBox="0 0 256 256" xmlns="http://www.w3.org/2000/svg">
  <path fill="#38bdf8" d="M128 0C104.914 0 83.212 9.07 67.283 25 51.353 40.93 42.28 62.634 42.28 85.717c0 23.084 9.073 44.787 25.003 60.716 15.93 15.93 37.63 25.003 60.717 25.003s44.787-9.073 60.716-25.003c15.93-15.93 25.003-37.632 25.003-60.716 0-23.083-9.073-44.786-25.003-60.717C172.788 9.07 151.086 0 128 0zm0 188.423c-13.627 0-26.685-5.414-36.326-15.053C82.034 163.73 76.62 150.672 76.62 137.045c0-13.627 5.414-26.685 15.054-36.325C101.315 91.08 114.373 85.666 128 85.666c13.627 0 26.685 5.414 36.326 15.054C173.966 110.36 179.38 123.418 179.38 137.045c0 13.627-5.414 26.685-15.054 36.326-9.64 9.64-22.698 15.052-36.326 15.052z"/>
</svg>